<svg xmlns="http://www.w3.org/2000/svg" viewBox="0 0 800 600">
  <!-- Background -->
  <rect width="800" height="600" fill="#1a1a2e"/>
  
  <!-- Title -->
  <text x="400" y="40" font-family="Arial" font-size="24" fill="#ffffff" text-anchor="middle" font-weight="bold">Atomic Heat Gradient with IR Curing on Film</text>
  
  <!-- Film substrate -->
  <g id="film">
    <!-- Base film layer -->
    <rect x="100" y="300" width="600" height="20" fill="#e0e0e0" opacity="0.7"/>
    
    <!-- Film texture/grid -->
    <g stroke="#ffffff" stroke-width="0.5" opacity="0.3">
      <line x1="100" y1="305" x2="700" y2="305"/>
      <line x1="100" y1="310" x2="700" y2="310"/>
      <line x1="100" y1="315" x2="700" y2="315"/>
      
      <!-- Vertical grid lines -->
      <line x1="150" y1="300" x2="150" y2="320"/>
      <line x1="200" y1="300" x2="200" y2="320"/>
      <line x1="250" y1="300" x2="250" y2="320"/>
      <line x1="300" y1="300" x2="300" y2="320"/>
      <line x1="350" y1="300" x2="350" y2="320"/>
      <line x1="400" y1="300" x2="400" y2="320"/>
      <line x1="450" y1="300" x2="450" y2="320"/>
      <line x1="500" y1="300" x2="500" y2="320"/>
      <line x1="550" y1="300" x2="550" y2="320"/>
      <line x1="600" y1="300" x2="600" y2="320"/>
      <line x1="650" y1="300" x2="650" y2="320"/>
    </g>
  </g>
  
  <!-- IR Source -->
  <g id="ir-source">
    <!-- IR emitter housing -->
    <rect x="350" y="100" width="100" height="40" rx="5" ry="5" fill="#555555" stroke="#333333" stroke-width="2"/>
    
    <!-- IR bulb -->
    <ellipse cx="400" cy="140" rx="30" ry="10" fill="#990000" stroke="#660000" stroke-width="1"/>
    
    <!-- IR bulb reflector -->
    <path d="M370,140 C370,125 430,125 430,140" fill="none" stroke="#888888" stroke-width="2"/>
    
    <!-- Heat warning symbol -->
    <path d="M390,120 L395,110 L400,120 L405,110 L410,120" stroke="#ff0000" stroke-width="1.5" fill="none"/>
    
    <!-- IR rays -->
    <g>
      <!-- Central IR beam -->
      <path d="M400,140 L400,300" stroke="#ff3300" stroke-width="0.8" opacity="0.2">
        <animate attributeName="opacity" values="0.2;0.8;0.2" dur="3s" repeatCount="indefinite"/>
      </path>
      
      <!-- Left IR rays -->
      <path d="M390,140 L360,300" stroke="#ff3300" stroke-width="0.8" opacity="0.2">
        <animate attributeName="opacity" values="0.2;0.6;0.2" dur="2.8s" repeatCount="indefinite"/>
      </path>
      <path d="M380,140 L320,300" stroke="#ff3300" stroke-width="0.8" opacity="0.2">
        <animate attributeName="opacity" values="0.2;0.5;0.2" dur="3.2s" repeatCount="indefinite"/>
      </path>
      <path d="M370,140 L280,300" stroke="#ff3300" stroke-width="0.8" opacity="0.1">
        <animate attributeName="opacity" values="0.1;0.4;0.1" dur="3.5s" repeatCount="indefinite"/>
      </path>
      
      <!-- Right IR rays -->
      <path d="M410,140 L440,300" stroke="#ff3300" stroke-width="0.8" opacity="0.2">
        <animate attributeName="opacity" values="0.2;0.6;0.2" dur="2.8s" repeatCount="indefinite"/>
      </path>
      <path d="M420,140 L480,300" stroke="#ff3300" stroke-width="0.8" opacity="0.2">
        <animate attributeName="opacity" values="0.2;0.5;0.2" dur="3.2s" repeatCount="indefinite"/>
      </path>
      <path d="M430,140 L520,300" stroke="#ff3300" stroke-width="0.8" opacity="0.1">
        <animate attributeName="opacity" values="0.1;0.4;0.1" dur="3.5s" repeatCount="indefinite"/>
      </path>
    </g>
  </g>
  
  <!-- Heat gradient on film -->
  <g id="heat-gradient">
    <defs>
      <radialGradient id="heatGrad" cx="0.5" cy="0" r="0.6" fx="0.5" fy="0">
        <stop offset="0%" stop-color="#ff3300" stop-opacity="0.8"/>
        <stop offset="30%" stop-color="#ff6600" stop-opacity="0.6"/>
        <stop offset="70%" stop-color="#ff9900" stop-opacity="0.3"/>
        <stop offset="100%" stop-color="#ffcc00" stop-opacity="0"/>
      </radialGradient>
    </defs>
    
    <!-- Heat pattern on film -->
    <ellipse cx="400" cy="300" rx="150" ry="10" fill="url(#heatGrad)" opacity="0.7">
      <animate attributeName="opacity" values="0.7;0.9;0.7" dur="4s" repeatCount="indefinite"/>
    </ellipse>
  </g>
  
  <!-- Atomic-level view closeup -->
  <g id="atomic-closeup" transform="translate(400, 380)">
    <!-- Closeup border -->
    <circle cx="0" cy="0" r="150" fill="#000033" stroke="#3366cc" stroke-width="2"/>
    
    <!-- Connection lines to film -->
    <line x1="0" y1="-150" x2="0" y2="-180" stroke="#3366cc" stroke-width="1" stroke-dasharray="5,3"/>
    <line x1="-50" y1="-140" x2="-70" y2="-160" stroke="#3366cc" stroke-width="1" stroke-dasharray="5,3"/>
    <line x1="50" y1="-140" x2="70" y2="-160" stroke="#3366cc" stroke-width="1" stroke-dasharray="5,3"/>
    
    <!-- Atomic structure of the film -->
    <g id="atomic-lattice">
      <!-- Base lattice -->
      <g stroke="#666699" stroke-width="1">
        <!-- Horizontal connections -->
        <line x1="-120" y1="-30" x2="-60" y2="-30"/>
        <line x1="-60" y1="-30" x2="0" y2="-30"/>
        <line x1="0" y1="-30" x2="60" y2="-30"/>
        <line x1="60" y1="-30" x2="120" y2="-30"/>
        
        <line x1="-120" y1="30" x2="-60" y2="30"/>
        <line x1="-60" y1="30" x2="0" y2="30"/>
        <line x1="0" y1="30" x2="60" y2="30"/>
        <line x1="60" y1="30" x2="120" y2="30"/>
        
        <line x1="-90" y1="-90" x2="-30" y2="-90"/>
        <line x1="-30" y1="-90" x2="30" y2="-90"/>
        <line x1="30" y1="-90" x2="90" y2="-90"/>
        
        <line x1="-90" y1="90" x2="-30" y2="90"/>
        <line x1="-30" y1="90" x2="30" y2="90"/>
        <line x1="30" y1="90" x2="90" y2="90"/>
        
        <!-- Vertical connections -->
        <line x1="-90" y1="-90" x2="-90" y2="90"/>
        <line x1="-30" y1="-90" x2="-30" y2="90"/>
        <line x1="30" y1="-90" x2="30" y2="90"/>
        <line x1="90" y1="-90" x2="90" y2="90"/>
        
        <line x1="-120" y1="-30" x2="-120" y2="30"/>
        <line x1="-60" y1="-30" x2="-60" y2="30"/>
        <line x1="0" y1="-30" x2="0" y2="30"/>
        <line x1="60" y1="-30" x2="60" y2="30"/>
        <line x1="120" y1="-30" x2="120" y2="30"/>
      </g>
      
      <!-- Atoms -->
      <g>
        <!-- Regular atoms -->
        <circle cx="-120" cy="-30" r="6" fill="#6666cc"/>
        <circle cx="-60" cy="-30" r="6" fill="#6666cc"/>
        <circle cx="0" cy="-30" r="6" fill="#6666cc"/>
        <circle cx="60" cy="-30" r="6" fill="#6666cc"/>
        <circle cx="120" cy="-30" r="6" fill="#6666cc"/>
        
        <circle cx="-120" cy="30" r="6" fill="#6666cc"/>
        <circle cx="-60" cy="30" r="6" fill="#6666cc"/>
        <circle cx="0" cy="30" r="6" fill="#6666cc"/>
        <circle cx="60" cy="30" r="6" fill="#6666cc"/>
        <circle cx="120" cy="30" r="6" fill="#6666cc"/>
        
        <circle cx="-90" cy="-90" r="6" fill="#6666cc"/>
        <circle cx="-30" cy="-90" r="6" fill="#6666cc"/>
        <circle cx="30" cy="-90" r="6" fill="#6666cc"/>
        <circle cx="90" cy="-90" r="6" fill="#6666cc"/>
        
        <circle cx="-90" cy="90" r="6" fill="#6666cc"/>
        <circle cx="-30" cy="90" r="6" fill="#6666cc"/>
        <circle cx="30" cy="90" r="6" fill="#6666cc"/>
        <circle cx="90" cy="90" r="6" fill="#6666cc"/>
        
        <!-- Heat-activated atoms (central line) -->
        <circle cx="-90" cy="0" r="7" fill="#ff6600">
          <animate attributeName="r" values="7;8;7" dur="2s" repeatCount="indefinite"/>
          <animate attributeName="fill" values="#ff6600;#ff9900;#ff6600" dur="2s" repeatCount="indefinite"/>
        </circle>
        <circle cx="-30" cy="0" r="7" fill="#ff6600">
          <animate attributeName="r" values="7;8;7" dur="2.2s" repeatCount="indefinite"/>
          <animate attributeName="fill" values="#ff6600;#ff9900;#ff6600" dur="2.2s" repeatCount="indefinite"/>
        </circle>
        <circle cx="30" cy="0" r="7" fill="#ff6600">
          <animate attributeName="r" values="7;8;7" dur="1.8s" repeatCount="indefinite"/>
          <animate attributeName="fill" values="#ff6600;#ff9900;#ff6600" dur="1.8s" repeatCount="indefinite"/>
        </circle>
        <circle cx="90" cy="0" r="7" fill="#ff6600">
          <animate attributeName="r" values="7;8;7" dur="2.1s" repeatCount="indefinite"/>
          <animate attributeName="fill" values="#ff6600;#ff9900;#ff6600" dur="2.1s" repeatCount="indefinite"/>
        </circle>
      </g>
      
      <!-- Bonding indicators -->
      <g>
        <!-- Central line showing new bonds forming -->
        <line x1="-90" y1="0" x2="-30" y2="0" stroke="#ff9900" stroke-width="3">
          <animate attributeName="stroke-width" values="3;4;3" dur="2s" repeatCount="indefinite"/>
          <animate attributeName="stroke" values="#ff9900;#ffcc00;#ff9900" dur="2s" repeatCount="indefinite"/>
        </line>
        <line x1="-30" y1="0" x2="30" y2="0" stroke="#ff9900" stroke-width="3">
          <animate attributeName="stroke-width" values="3;4;3" dur="2.2s" repeatCount="indefinite"/>
          <animate attributeName="stroke" values="#ff9900;#ffcc00;#ff9900" dur="2.2s" repeatCount="indefinite"/>
        </line>
        <line x1="30" y1="0" x2="90" y2="0" stroke="#ff9900" stroke-width="3">
          <animate attributeName="stroke-width" values="3;4;3" dur="1.8s" repeatCount="indefinite"/>
          <animate attributeName="stroke" values="#ff9900;#ffcc00;#ff9900" dur="1.8s" repeatCount="indefinite"/>
        </line>
      </g>
      
      <!-- Thermal vibration indicators -->
      <g stroke="#ff3300" stroke-width="0.8" fill="none">
        <circle cx="-90" cy="0" r="12">
          <animate attributeName="r" values="12;14;12" dur="1s" repeatCount="indefinite"/>
          <animate attributeName="opacity" values="0.6;0.3;0.6" dur="1s" repeatCount="indefinite"/>
        </circle>
        <circle cx="-30" cy="0" r="12">
          <animate attributeName="r" values="12;14;12" dur="1.2s" repeatCount="indefinite"/>
          <animate attributeName="opacity" values="0.6;0.3;0.6" dur="1.2s" repeatCount="indefinite"/>
        </circle>
        <circle cx="30" cy="0" r="12">
          <animate attributeName="r" values="12;14;12" dur="0.9s" repeatCount="indefinite"/>
          <animate attributeName="opacity" values="0.6;0.3;0.6" dur="0.9s" repeatCount="indefinite"/>
        </circle>
        <circle cx="90" cy="0" r="12">
          <animate attributeName="r" values="12;14;12" dur="1.1s" repeatCount="indefinite"/>
          <animate attributeName="opacity" values="0.6;0.3;0.6" dur="1.1s" repeatCount="indefinite"/>
        </circle>
      </g>
    </g>
    
    <!-- IR photons hitting the atoms -->
    <g fill="#ff6600" opacity="0.7">
      <circle cx="-70" cy="-100" r="3">
        <animate attributeName="cx" values="-70;-90;-90" dur="1s" repeatCount="indefinite"/>
        <animate attributeName="cy" values="-100;-50;0" dur="1s" repeatCount="indefinite"/>
        <animate attributeName="opacity" values="0.7;0.9;0" dur="1s" repeatCount="indefinite"/>
      </circle>
      
      <circle cx="-10" cy="-100" r="3">
        <animate attributeName="cx" values="-10;-30;-30" dur="1.2s" repeatCount="indefinite"/>
        <animate attributeName="cy" values="-100;-50;0" dur="1.2s" repeatCount="indefinite"/>
        <animate attributeName="opacity" values="0.7;0.9;0" dur="1.2s" repeatCount="indefinite"/>
      </circle>
      
      <circle cx="50" cy="-100" r="3">
        <animate attributeName="cx" values="50;30;30" dur="0.9s" repeatCount="indefinite"/>
        <animate attributeName="cy" values="-100;-50;0" dur="0.9s" repeatCount="indefinite"/>
        <animate attributeName="opacity" values="0.7;0.9;0" dur="0.9s" repeatCount="indefinite"/>
      </circle>
      
      <circle cx="110" cy="-100" r="3">
        <animate attributeName="cx" values="110;90;90" dur="1.1s" repeatCount="indefinite"/>
        <animate attributeName="cy" values="-100;-50;0" dur="1.1s" repeatCount="indefinite"/>
        <animate attributeName="opacity" values="0.7;0.9;0" dur="1.1s" repeatCount="indefinite"/>
      </circle>
    </g>
    
    <!-- "Atomic Closeup" label -->
    <text x="0" y="-120" font-family="Arial" font-size="14" fill="#ffffff" text-anchor="middle">Atomic Level Closeup</text>
  </g>
  
  <!-- Generated line on film -->
  <rect x="280" y="297" width="240" height="2" fill="#ffffff">
    <animate attributeName="width" values="0;240" dur="5s" fill="freeze"/>
    <animate attributeName="x" values="400;280" dur="5s" fill="freeze"/>
  </rect>
  
  <!-- Temperature scale -->
  <g transform="translate(720, 150)">
    <defs>
      <linearGradient id="tempGradient" x1="0%" y1="100%" x2="0%" y2="0%">
        <stop offset="0%" stop-color="#0000ff"/>
        <stop offset="25%" stop-color="#00ffff"/>
        <stop offset="50%" stop-color="#00ff00"/>
        <stop offset="75%" stop-color="#ffff00"/>
        <stop offset="100%" stop-color="#ff0000"/>
      </linearGradient>
    </defs>
    
    <rect x="0" y="0" width="20" height="200" fill="url(#tempGradient)" stroke="#ffffff" stroke-width="1"/>
    
    <!-- Scale markings -->
    <line x1="-5" y1="0" x2="0" y2="0" stroke="#ffffff" stroke-width="1"/>
    <line x1="-5" y1="50" x2="0" y2="50" stroke="#ffffff" stroke-width="1"/>
    <line x1="-5" y1="100" x2="0" y2="100" stroke="#ffffff" stroke-width="1"/>
    <line x1="-5" y1="150" x2="0" y2="150" stroke="#ffffff" stroke-width="1"/>
    <line x1="-5" y1="200" x2="0" y2="200" stroke="#ffffff" stroke-width="1"/>
    
    <!-- Temperature labels -->
    <text x="-10" y="0" font-family="Arial" font-size="10" fill="#ffffff" text-anchor="end" dominant-baseline="middle">1000°C</text>
    <text x="-10" y="50" font-family="Arial" font-size="10" fill="#ffffff" text-anchor="end" dominant-baseline="middle">750°C</text>
    <text x="-10" y="100" font-family="Arial" font-size="10" fill="#ffffff" text-anchor="end" dominant-baseline="middle">500°C</text>
    <text x="-10" y="150" font-family="Arial" font-size="10" fill="#ffffff" text-anchor="end" dominant-baseline="middle">250°C</text>
    <text x="-10" y="200" font-family="Arial" font-size="10" fill="#ffffff" text-anchor="end" dominant-baseline="middle">0°C</text>
    
    <!-- Title -->
    <text x="10" y="-20" font-family="Arial" font-size="12" fill="#ffffff" text-anchor="middle">Temperature</text>
  </g>
  
  <!-- Molecular rearrangement indicator -->
  <g transform="translate(400, 330)">
    <text x="0" y="0" font-family="Arial" font-size="10" fill="#ffffff" text-anchor="middle">Molecular Rearrangement Zone</text>
    <path d="M-80,-5 L80,-5" stroke="#ffffff" stroke-width="0.5" stroke-dasharray="3,2"/>
    
    <!-- Arrows pointing to the line -->
    <path d="M-60,-10 L-60,-5 L-65,-8 M-60,-5 L-55,-8" stroke="#ffffff" stroke-width="0.8" fill="none"/>
    <path d="M0,-10 L0,-5 L-5,-8 M0,-5 L5,-8" stroke="#ffffff" stroke-width="0.8" fill="none"/>
    <path d="M60,-10 L60,-5 L55,-8 M60,-5 L65,-8" stroke="#ffffff" stroke-width="0.8" fill="none"/>
  </g>
  
  <!-- Process stages -->
  <g transform="translate(160, 150)">
    <rect x="0" y="0" width="120" height="80" rx="5" ry="5" fill="#000033" stroke="#3366cc" stroke-width="1"/>
    <text x="60" y="20" font-family="Arial" font-size="12" fill="#ffffff" text-anchor="middle" font-weight="bold">Process Stages</text>
    
    <text x="10" y="33" font-family="Arial" font-size="10" fill="#ffffff">1. IR emission</text>
    <text x="10" y="45" font-family="Arial" font-size="10" fill="#ffffff">2. Heat gradient forms</text>
    <text x="10" y="60" font-family="Arial" font-size="10" fill="#ffffff">3. Atomic bonds realign</text>
    <text x="10" y="75" font-family="Arial" font-size="10" fill="#ffffff">4. Line forms on film</text>
  </g>
  
  <!-- Technical specs -->
  <g transform="translate(160, 250)">
    <rect x="0" y="0" width="120" height="80" rx="5" ry="5" fill="#000033" stroke="#3366cc" stroke-width="1"/>
    <text x="60" y="20" font-family="Arial" font-size="12" fill="#ffffff" text-anchor="middle" font-weight="bold">Specifications</text>
    
    <text x="10" y="33" font-family="Arial" font-size="10" fill="#ffffff">Wavelength: 750-1400nm</text>
    <text x="10" y="45" font-family="Arial" font-size="10" fill="#ffffff">Power: 1-5mW</text>
    <text x="10" y="60" font-family="Arial" font-size="10" fill="#ffffff">Line width: 20-100µm</text>
    <text x="10" y="75" font-family="Arial" font-size="10" fill="#ffffff">Process time: 0.5-3s</text>
  </g>
</svg>
