<?xml version="1.0" encoding="UTF-8" standalone="no"?>
<svg viewBox="0 0 900 700" xmlns="http://www.w3.org/2000/svg">
  <!-- Definitions -->
  <defs>
    <!-- Gradients -->
    <linearGradient id="bgGradient" x1="0%" y1="0%" x2="0%" y2="100%">
      <stop offset="0%" style="stop-color:#0a192f;stop-opacity:1" />
      <stop offset="100%" style="stop-color:#172a45;stop-opacity:1" />
    </linearGradient>
    
    <linearGradient id="energyGradient" x1="0%" y1="0%" x2="100%" y2="0%">
      <stop offset="0%" style="stop-color:#4facfe;stop-opacity:1" />
      <stop offset="100%" style="stop-color:#00f2fe;stop-opacity:1" />
    </linearGradient>
    
    <linearGradient id="exhaustGradient" x1="0%" y1="0%" x2="100%" y2="0%">
      <stop offset="0%" style="stop-color:#f83600;stop-opacity:1" />
      <stop offset="100%" style="stop-color:#f9d423;stop-opacity:0.8" />
    </linearGradient>
    
    <linearGradient id="resonatorGradient" x1="0%" y1="0%" x2="100%" y2="0%">
      <stop offset="0%" style="stop-color:#7303c0;stop-opacity:0.8" />
      <stop offset="100%" style="stop-color:#ec38bc;stop-opacity:0.5" />
    </linearGradient>
    
    <!-- Filters -->
    <filter id="glow" x="-20%" y="-20%" width="140%" height="140%">
      <feGaussianBlur stdDeviation="5" result="blur" />
      <feComposite in="SourceGraphic" in2="blur" operator="over" />
    </filter>
    
    <!-- Patterns -->
    <pattern id="gridPattern" width="20" height="20" patternUnits="userSpaceOnUse">
      <path d="M 20 0 L 0 0 0 20" fill="none" stroke="#8892b0" stroke-width="0.5" opacity="0.3"/>
    </pattern>
  </defs>
  
  <!-- Background -->
  <rect width="900" height="700" fill="url(#bgGradient)" />
  <rect width="900" height="700" fill="url(#gridPattern)" />
  
  <!-- Title -->
  <text x="450" y="50" font-family="Arial, sans-serif" font-size="30" font-weight="bold" text-anchor="middle" fill="#64ffda">Brachistochrone Resonator Propulsion System</text>
  
  <!-- System Overview Section -->
  <g transform="translate(50, 90)">
    <text x="0" y="0" font-family="Arial, sans-serif" font-size="22" font-weight="bold" fill="#ccd6f6">System Overview</text>
    <rect x="0" y="10" width="800" height="180" fill="none" stroke="#64ffda" stroke-width="1" rx="5" ry="5" stroke-dasharray="5,5" />
    
    <!-- Spacecraft with propulsion system diagram -->
    <g transform="translate(50, 50)">
      <!-- Spacecraft Body -->
      <path d="M 50,50 L 100,20 L 350,20 L 400,50 L 350,80 L 100,80 Z" fill="#495670" stroke="#ccd6f6" stroke-width="2" />
      
      <!-- Brachistochrone Resonator Chamber -->
      <ellipse cx="225" cy="50" rx="75" ry="35" fill="none" stroke="#64ffda" stroke-width="2" />
      
      <!-- Cycloid Paths (Brachistochrone curves) -->
      <path d="M 160,65 Q 190,20 220,65 Q 250,110 280,65" stroke="#64ffda" stroke-width="1.5" fill="none" />
      <path d="M 170,60 Q 200,15 230,60 Q 260,105 290,60" stroke="#64ffda" stroke-width="1.5" fill="none" />
      
      <!-- Resonator Nodes -->
      <circle cx="160" cy="65" r="5" fill="url(#resonatorGradient)" filter="url(#glow)" />
      <circle cx="220" cy="65" r="5" fill="url(#resonatorGradient)" filter="url(#glow)" />
      <circle cx="280" cy="65" r="5" fill="url(#resonatorGradient)" filter="url(#glow)" />
      
      <!-- Energy Flow -->
      <path d="M 100,50 L 150,50" stroke="url(#energyGradient)" stroke-width="4" stroke-dasharray="5,3" />
      
      <!-- Exhaust -->
      <path d="M 350,50 L 400,50" stroke="url(#energyGradient)" stroke-width="4" />
      <path d="M 400,35 L 450,35 L 480,50 L 450,65 L 400,65 L 400,35 Z" fill="url(#exhaustGradient)" filter="url(#glow)" />
      <path d="M 480,50 L 550,50" stroke="url(#exhaustGradient)" stroke-width="10" stroke-linecap="round" filter="url(#glow)" />
      
      <!-- Particles -->
      <circle cx="180" cy="40" r="3" fill="#64ffda" />
      <circle cx="200" cy="70" r="3" fill="#64ffda" />
      <circle cx="240" cy="30" r="3" fill="#64ffda" />
      <circle cx="260" cy="75" r="3" fill="#64ffda" />
    </g>
    
    <!-- Labels -->
    <text x="225" y="170" font-family="Arial, sans-serif" font-size="14" text-anchor="middle" fill="#8892b0">Brachistochrone Resonator Chamber</text>
    <text x="400" y="170" font-family="Arial, sans-serif" font-size="14" fill="#8892b0">Optimized Propulsion</text>
  </g>
  
  <!-- Principle Section -->
  <g transform="translate(50, 300)">
    <text x="0" y="0" font-family="Arial, sans-serif" font-size="22" font-weight="bold" fill="#ccd6f6">Principles of Operation</text>
    
    <g transform="translate(0, 20)">
      <!-- Left Column - Brachistochrone -->
      <text x="0" y="0" font-family="Arial, sans-serif" font-size="18" font-weight="bold" fill="#64ffda">Brachistochrone Effect</text>
      
      <!-- Brachistochrone Curve Illustration -->
      <rect x="0" y="10" width="380" height="150" fill="none" stroke="#8892b0" stroke-width="1" rx="5" ry="5" />
      <line x1="50" y1="40" x2="330" y2="40" stroke="#8892b0" stroke-width="1" stroke-dasharray="3,3" />
      <line x1="50" y1="140" x2="330" y2="140" stroke="#8892b0" stroke-width="1" stroke-dasharray="3,3" />
      
      <!-- Starting Point and Ending Point -->
      <circle cx="50" cy="40" r="5" fill="#64ffda" />
      <circle cx="330" cy="140" r="5" fill="#64ffda" />
      
      <!-- Three paths -->
      <path d="M 50,40 L 330,140" stroke="#8892b0" stroke-width="1.5" />
      <text x="180" y="80" font-family="Arial, sans-serif" font-size="12" fill="#8892b0">Straight Path</text>
      
      <path d="M 50,40 C 150,40 250,140 330,140" stroke="#ccd6f6" stroke-width="1.5" />
      <text x="150" y="60" font-family="Arial, sans-serif" font-size="12" fill="#ccd6f6">Curved Path</text>
      
      <path d="M 50,40 Q 120,120 210,130 T 330,140" stroke="#64ffda" stroke-width="2" />
      <text x="120" y="130" font-family="Arial, sans-serif" font-size="12" fill="#64ffda">Brachistochrone Path</text>
      
      <text x="10" y="180" font-family="Arial, sans-serif" font-size="14" fill="#8892b0">• Fastest time path between two points</text>
      <text x="10" y="200" font-family="Arial, sans-serif" font-size="14" fill="#8892b0">• Allows for optimal energy transfer</text>
    </g>
    
    <g transform="translate(400, 20)">
      <!-- Right Column - Resonator -->
      <text x="0" y="0" font-family="Arial, sans-serif" font-size="18" font-weight="bold" fill="#64ffda">Resonance Amplification</text>
      
      <!-- Resonator Illustration -->
      <rect x="0" y="10" width="380" height="150" fill="none" stroke="#8892b0" stroke-width="1" rx="5" ry="5" />
      
      <!-- Standing Wave Pattern -->
      <path d="M 30,80 Q 80,40 130,80 Q 180,120 230,80 Q 280,40 330,80" stroke="#64ffda" stroke-width="2" fill="none" />
      <path d="M 30,80 Q 80,120 130,80 Q 180,40 230,80 Q 280,120 330,80" stroke="#64ffda" stroke-width="2" fill="none" stroke-dasharray="5,3" />
      
      <!-- Nodes -->
      <circle cx="30" cy="80" r="5" fill="url(#resonatorGradient)" />
      <circle cx="130" cy="80" r="5" fill="url(#resonatorGradient)" />
      <circle cx="230" cy="80" r="5" fill="url(#resonatorGradient)" />
      <circle cx="330" cy="80" r="5" fill="url(#resonatorGradient)" />
      
      <text x="10" y="180" font-family="Arial, sans-serif" font-size="14" fill="#8892b0">• Energy accumulates at resonant nodes</text>
      <text x="10" y="200" font-family="Arial, sans-serif" font-size="14" fill="#8892b0">• Wave amplification through constructive interference</text>
      <text x="10" y="220" font-family="Arial, sans-serif" font-size="14" fill="#8892b0">• Creates synchronized energy pulses</text>
    </g>
  </g>
  
  <!-- Applications Section -->
  <g transform="translate(50, 550)">
    <text x="0" y="0" font-family="Arial, sans-serif" font-size="22" font-weight="bold" fill="#ccd6f6">Applications &amp; Advantages</text>
    <rect x="0" y="10" width="800" height="110" fill="none" stroke="#64ffda" stroke-width="1" rx="5" ry="5" />
    
    <!-- Four Columns -->
    <g transform="translate(30, 30)">
      <!-- Efficiency -->
      <circle cx="0" cy="0" r="15" fill="none" stroke="#64ffda" stroke-width="2" />
      <text x="0" y="5" font-family="Arial, sans-serif" font-size="14" font-weight="bold" text-anchor="middle" fill="#64ffda">1</text>
      <text x="30" y="5" font-family="Arial, sans-serif" font-size="16" font-weight="bold" fill="#ccd6f6">Enhanced Efficiency</text>
      <text x="30" y="25" font-family="Arial, sans-serif" font-size="14" fill="#8892b0">20-35% higher specific</text>
      <text x="30" y="45" font-family="Arial, sans-serif" font-size="14" fill="#8892b0">impulse than conventional</text>
      <text x="30" y="65" font-family="Arial, sans-serif" font-size="14" fill="#8892b0">propulsion systems</text>
    </g>
    
    <g transform="translate(230, 30)">
      <!-- Acceleration -->
      <circle cx="0" cy="0" r="15" fill="none" stroke="#64ffda" stroke-width="2" />
      <text x="0" y="5" font-family="Arial, sans-serif" font-size="14" font-weight="bold" text-anchor="middle" fill="#64ffda">2</text>
      <text x="30" y="5" font-family="Arial, sans-serif" font-size="16" font-weight="bold" fill="#ccd6f6">Optimal Acceleration</text>
      <text x="30" y="25" font-family="Arial, sans-serif" font-size="14" fill="#8892b0">Time-optimized particle</text>
      <text x="30" y="45" font-family="Arial, sans-serif" font-size="14" fill="#8892b0">paths maximize momentum</text>
      <text x="30" y="65" font-family="Arial, sans-serif" font-size="14" fill="#8892b0">transfer</text>
    </g>
    
    <g transform="translate(430, 30)">
      <!-- Applications -->
      <circle cx="0" cy="0" r="15" fill="none" stroke="#64ffda" stroke-width="2" />
      <text x="0" y="5" font-family="Arial, sans-serif" font-size="14" font-weight="bold" text-anchor="middle" fill="#64ffda">3</text>
      <text x="30" y="5" font-family="Arial, sans-serif" font-size="16" font-weight="bold" fill="#ccd6f6">Key Applications</text>
      <text x="30" y="25" font-family="Arial, sans-serif" font-size="14" fill="#8892b0">Interplanetary missions,</text>
      <text x="30" y="45" font-family="Arial, sans-serif" font-size="14" fill="#8892b0">satellite station-keeping,</text>
      <text x="30" y="65" font-family="Arial, sans-serif" font-size="14" fill="#8892b0">deep space probes</text>
    </g>
    
    <g transform="translate(630, 30)">
      <!-- Future Tech -->
      <circle cx="0" cy="0" r="15" fill="none" stroke="#64ffda" stroke-width="2" />
      <text x="0" y="5" font-family="Arial, sans-serif" font-size="14" font-weight="bold" text-anchor="middle" fill="#64ffda">4</text>
      <text x="30" y="5" font-family="Arial, sans-serif" font-size="16" font-weight="bold" fill="#ccd6f6">Next-Gen Potential</text>
      <text x="30" y="25" font-family="Arial, sans-serif" font-size="14" fill="#8892b0">Scalable for antimatter</text>
      <text x="30" y="45" font-family="Arial, sans-serif" font-size="14" fill="#8892b0">catalyzed fusion and</text>
      <text x="30" y="65" font-family="Arial, sans-serif" font-size="14" fill="#8892b0">exotic propellants</text>
    </g>
  </g>
  
  <!-- Footer -->
  <text x="450" y="680" font-family="Arial, sans-serif" font-size="14" font-style="italic" text-anchor="middle" fill="#8892b0">Theoretical Advanced Propulsion Systems — 2025</text>
</svg>
