<?xml version="1.0" encoding="UTF-8" standalone="no"?>
<svg viewBox="0 0 800 500" xmlns="http://www.w3.org/2000/svg">
  <!-- Background -->
  <rect x="0" y="0" width="800" height="500" fill="#f8f9fa" />
  
  <!-- Title -->
  <text x="400" y="40" text-anchor="middle" font-family="Arial, sans-serif" font-size="24" font-weight="bold" fill="#333333">
    Photon to Gas Transformation via Momentum Sinkhole Equation
  </text>
  
  <!-- Main equation -->
  <text x="400" y="80" text-anchor="middle" font-family="'Cambria Math', serif" font-size="28" fill="#000000">
    Φ = ∇Λ − Ω
  </text>
  
  <!-- Three stages of transformation -->
  <!-- Stage 1: Free Photons -->
  <g transform="translate(150, 200)">
    <!-- Stage title -->
    <text x="0" y="-70" text-anchor="middle" font-family="Arial, sans-serif" font-size="16" font-weight="bold" fill="#333333">
      Stage 1: Free Photons
    </text>
    
    <!-- Equation state -->
    <text x="0" y="-45" text-anchor="middle" font-family="'Cambria Math', serif" font-size="14" fill="#666666">
      Φ > 0, ∇Λ ≈ 0, Ω ≈ 0
    </text>
    
    <!-- Photon visualization -->
    <rect x="-70" y="-25" width="140" height="100" rx="5" ry="5" fill="#f0f0f0" stroke="#cccccc" />
    
    <!-- Wavy photon lines -->
    <path d="M -60,25 C -50,15 -40,35 -30,25 C -20,15 -10,35 0,25 C 10,15 20,35 30,25 C 40,15 50,35 60,25" 
          fill="none" stroke="#ff9900" stroke-width="2" />
    <path d="M -60,50 C -50,40 -40,60 -30,50 C -20,40 -10,60 0,50 C 10,40 20,60 30,50 C 40,40 50,60 60,50" 
          fill="none" stroke="#ff9900" stroke-width="2" />
  </g>
  
  <!-- Stage 2: Transition State -->
  <g transform="translate(400, 200)">
    <!-- Stage title -->
    <text x="0" y="-70" text-anchor="middle" font-family="Arial, sans-serif" font-size="16" font-weight="bold" fill="#333333">
      Stage 2: Quantum Localization
    </text>
    
    <!-- Equation state -->
    <text x="0" y="-45" text-anchor="middle" font-family="'Cambria Math', serif" font-size="14" fill="#666666">
      Φ ≈ 0, ∇Λ > 0, Ω > 0
    </text>
    
    <!-- Transition visualization -->
    <rect x="-70" y="-25" width="140" height="100" rx="5" ry="5" fill="#f0f0f0" stroke="#cccccc" />
    
    <!-- Partially localized photons -->
    <circle cx="-40" cy="25" r="10" fill="none" stroke="#ff9900" stroke-width="2" stroke-dasharray="2,2" />
    <circle cx="0" cy="50" r="10" fill="none" stroke="#ff9900" stroke-width="2" stroke-dasharray="2,2" />
    <circle cx="40" cy="25" r="10" fill="none" stroke="#ff9900" stroke-width="2" stroke-dasharray="2,2" />
    
    <!-- Force arrows -->
    <path d="M -50,25 L -40,25" stroke="#3366cc" stroke-width="1" marker-end="url(#arrow)" />
    <path d="M -30,25 L -40,25" stroke="#cc3366" stroke-width="1" marker-end="url(#arrow)" />
    <path d="M -10,50 L 0,50" stroke="#3366cc" stroke-width="1" marker-end="url(#arrow)" />
    <path d="M 10,50 L 0,50" stroke="#cc3366" stroke-width="1" marker-end="url(#arrow)" />
    <path d="M 30,25 L 40,25" stroke="#3366cc" stroke-width="1" marker-end="url(#arrow)" />
    <path d="M 50,25 L 40,25" stroke="#cc3366" stroke-width="1" marker-end="url(#arrow)" />
  </g>
  
  <!-- Stage 3: Photon Gas -->
  <g transform="translate(650, 200)">
    <!-- Stage title -->
    <text x="0" y="-70" text-anchor="middle" font-family="Arial, sans-serif" font-size="16" font-weight="bold" fill="#333333">
      Stage 3: Photon Gas
    </text>
    
    <!-- Equation state -->
    <text x="0" y="-45" text-anchor="middle" font-family="'Cambria Math', serif" font-size="14" fill="#666666">
      Φ = 0, ∇Λ = Ω
    </text>
    
    <!-- Gas visualization -->
    <rect x="-70" y="-25" width="140" height="100" rx="5" ry="5" fill="#f0f0f0" stroke="#cccccc" />
    
    <!-- Gas particles -->
    <circle cx="-40" cy="25" r="8" fill="#ff9900" fill-opacity="0.7" />
    <circle cx="-20" cy="45" r="8" fill="#ff9900" fill-opacity="0.7" />
    <circle cx="0" cy="25" r="8" fill="#ff9900" fill-opacity="0.7" />
    <circle cx="20" cy="60" r="8" fill="#ff9900" fill-opacity="0.7" />
    <circle cx="40" cy="20" r="8" fill="#ff9900" fill-opacity="0.7" />
    <circle cx="10" cy="40" r="8" fill="#ff9900" fill-opacity="0.7" />
    <circle cx="-35" cy="65" r="8" fill="#ff9900" fill-opacity="0.7" />
  </g>
  
  <!-- Process arrows -->
  <path d="M 220,200 L 280,200" stroke="#666666" stroke-width="2" marker-end="url(#arrow)" />
  <path d="M 470,200 L 530,200" stroke="#666666" stroke-width="2" marker-end="url(#arrow)" />
  
  <!-- Arrow marker definition -->
  <defs>
    <marker id="arrow" markerWidth="10" markerHeight="10" refX="9" refY="3" orient="auto" markerUnits="strokeWidth">
      <path d="M0,0 L0,6 L9,3 z" fill="#666666" />
    </marker>
  </defs>
  
  <text x="380" y="300" text-anchor="middle" font-family="Arial, sans-serif" font-size="12" fill="#666666" font-style="italic">
	Free Photons (Φ > 0, ∇Λ ≈ 0, Ω ≈ 0): Photons exist as pure energy waves with no positional stability, traveling at light speed.
  </text>
  
  
  <text x="380" y="330" text-anchor="middle" font-family="Arial, sans-serif" font-size="12" fill="#666666" font-style="italic">
	Quantum Localization (Φ ≈ 0, ∇Λ > 0, Ω > 0): Energy wells begin to form as the gradient force increases, while a counterforce
  </text>
  
  <text x="380" y="360" text-anchor="middle" font-family="Arial, sans-serif" font-size="12" fill="#666666" font-style="italic">
	simultaneously develops. This creates a transition state where photons start becoming positionally constrained.
  </text>
  
   <text x="380" y="390" text-anchor="middle" font-family="Arial, sans-serif" font-size="12" fill="#666666" font-style="italic">
	Photon Gas (Φ = 0, ∇Λ = Ω): The gradient force and counterforce reach perfect equilibrium, creating stable positions for photons
  </text>
  
  
  <text x="380" y="420" text-anchor="middle" font-family="Arial, sans-serif" font-size="12" fill="#666666" font-style="italic">
	while maintaining their energy. This results in gas-like behavior where photons remain in defined spatial regions while
  </text>
  
  <text x="380" y="450" text-anchor="middle" font-family="Arial, sans-serif" font-size="12" fill="#666666" font-style="italic">
	exhibiting particle-like properties.    
  </text>
  <!-- Footer note -->
  <text x="380" y="470" text-anchor="middle" font-family="Arial, sans-serif" font-size="12" fill="#666666" font-style="italic">
    The momentum sinkhole equation describes how opposing forces create stable positional states,
    
  </text>
  
   <text x="380" y="490" text-anchor="middle" font-family="Arial, sans-serif" font-size="12" fill="#666666" font-style="italic">
   allowing photons to transition from pure energy to 2D gas-like matter.
  </text>
</svg>